<mxfile host="app.diagrams.net" modified="2022-03-02T08:30:06.743Z" agent="5.0 (Macintosh; Intel Mac OS X 10_15_7) AppleWebKit/537.36 (KHTML, like Gecko) Chrome/98.0.4758.109 Safari/537.36" etag="leMtiBoA0iPSzTd-Nojs" version="16.6.4" type="github">
  <diagram name="Page-1" id="13e1069c-82ec-6db2-03f1-153e76fe0fe0">
    <mxGraphModel dx="721" dy="463" grid="0" gridSize="10" guides="1" tooltips="1" connect="1" arrows="1" fold="1" page="1" pageScale="1" pageWidth="1100" pageHeight="850" background="none" math="0" shadow="0">
      <root>
        <mxCell id="0" />
        <mxCell id="1" parent="0" />
        <mxCell id="7baba1c4bc27f4b0-3" value="agollo cache" style="shape=umlLifeline;perimeter=lifelinePerimeter;whiteSpace=wrap;html=1;container=1;collapsible=0;recursiveResize=0;outlineConnect=0;rounded=1;shadow=0;comic=0;labelBackgroundColor=none;strokeWidth=2;fontFamily=Verdana;fontSize=12;align=center;strokeColor=#060083;fontColor=#060083;size=44;" parent="1" vertex="1">
          <mxGeometry x="400" y="80" width="100" height="580" as="geometry" />
        </mxCell>
        <mxCell id="7baba1c4bc27f4b0-13" value="" style="html=1;points=[];perimeter=orthogonalPerimeter;rounded=0;shadow=0;comic=0;labelBackgroundColor=none;strokeWidth=2;fontFamily=Verdana;fontSize=12;align=center;strokeColor=#EC4C2C;" parent="7baba1c4bc27f4b0-3" vertex="1">
          <mxGeometry x="45" y="71" width="10" height="460" as="geometry" />
        </mxCell>
        <mxCell id="7baba1c4bc27f4b0-4" value="apollo server" style="shape=umlLifeline;perimeter=lifelinePerimeter;whiteSpace=wrap;html=1;container=1;collapsible=0;recursiveResize=0;outlineConnect=0;rounded=1;shadow=0;comic=0;labelBackgroundColor=none;strokeWidth=2;fontFamily=Verdana;fontSize=12;align=center;strokeColor=#060083;fontColor=#060083;" parent="1" vertex="1">
          <mxGeometry x="573" y="80" width="100" height="580" as="geometry" />
        </mxCell>
        <mxCell id="gveuww5ipjgfqFw71CMf-23" value="" style="html=1;points=[];perimeter=orthogonalPerimeter;rounded=0;shadow=0;comic=0;labelBackgroundColor=none;strokeWidth=2;fontFamily=Verdana;fontSize=12;align=center;strokeColor=#EC4C2C;" parent="7baba1c4bc27f4b0-4" vertex="1">
          <mxGeometry x="45" y="183" width="10" height="20" as="geometry" />
        </mxCell>
        <mxCell id="gveuww5ipjgfqFw71CMf-21" style="edgeStyle=orthogonalEdgeStyle;rounded=0;orthogonalLoop=1;jettySize=auto;html=1;exitX=-0.033;exitY=0.989;exitDx=0;exitDy=0;exitPerimeter=0;dashed=1;dashPattern=1 1;entryX=1.117;entryY=0.265;entryDx=0;entryDy=0;entryPerimeter=0;" parent="7baba1c4bc27f4b0-4" edge="1" target="7baba1c4bc27f4b0-13">
          <mxGeometry relative="1" as="geometry">
            <mxPoint x="-84" y="192.9999999999999" as="targetPoint" />
            <Array as="points" />
            <mxPoint x="44.67000000000007" y="192.89999999999986" as="sourcePoint" />
          </mxGeometry>
        </mxCell>
        <mxCell id="gveuww5ipjgfqFw71CMf-22" value="update event" style="edgeLabel;html=1;align=center;verticalAlign=middle;resizable=0;points=[];" parent="gveuww5ipjgfqFw71CMf-21" vertex="1" connectable="0">
          <mxGeometry x="0.1129" y="2" relative="1" as="geometry">
            <mxPoint x="12" y="-2" as="offset" />
          </mxGeometry>
        </mxCell>
        <mxCell id="gveuww5ipjgfqFw71CMf-2" style="edgeStyle=orthogonalEdgeStyle;rounded=0;orthogonalLoop=1;jettySize=auto;html=1;exitX=-0.033;exitY=0.989;exitDx=0;exitDy=0;exitPerimeter=0;dashed=1;dashPattern=1 1;entryX=1.126;entryY=0.183;entryDx=0;entryDy=0;entryPerimeter=0;" parent="1" source="7baba1c4bc27f4b0-16" target="7baba1c4bc27f4b0-13" edge="1">
          <mxGeometry relative="1" as="geometry">
            <mxPoint x="456" y="270" as="targetPoint" />
            <Array as="points">
              <mxPoint x="456" y="234" />
            </Array>
          </mxGeometry>
        </mxCell>
        <mxCell id="gveuww5ipjgfqFw71CMf-7" value="&amp;nbsp;config&amp;nbsp;" style="edgeLabel;html=1;align=center;verticalAlign=middle;resizable=0;points=[];" parent="gveuww5ipjgfqFw71CMf-2" vertex="1" connectable="0">
          <mxGeometry x="0.1129" y="2" relative="1" as="geometry">
            <mxPoint as="offset" />
          </mxGeometry>
        </mxCell>
        <mxCell id="7baba1c4bc27f4b0-16" value="" style="html=1;points=[];perimeter=orthogonalPerimeter;rounded=0;shadow=0;comic=0;labelBackgroundColor=none;strokeWidth=2;fontFamily=Verdana;fontSize=12;align=center;strokeColor=#EC4C2C;" parent="1" vertex="1">
          <mxGeometry x="618" y="171" width="10" height="64" as="geometry" />
        </mxCell>
        <mxCell id="7baba1c4bc27f4b0-17" value="syncConfig()" style="html=1;verticalAlign=bottom;endArrow=block;labelBackgroundColor=none;fontFamily=Verdana;fontSize=12;edgeStyle=elbowEdgeStyle;elbow=vertical;" parent="1" source="7baba1c4bc27f4b0-13" target="7baba1c4bc27f4b0-16" edge="1">
          <mxGeometry relative="1" as="geometry">
            <mxPoint x="510" y="171" as="sourcePoint" />
            <Array as="points">
              <mxPoint x="460" y="171" />
            </Array>
          </mxGeometry>
        </mxCell>
        <mxCell id="Wkq0o6lShJqNt1TCamey-1" style="edgeStyle=orthogonalEdgeStyle;rounded=0;orthogonalLoop=1;jettySize=auto;html=1;exitX=-0.033;exitY=0.989;exitDx=0;exitDy=0;exitPerimeter=0;dashed=1;dashPattern=1 1;" parent="1" source="Wkq0o6lShJqNt1TCamey-3" edge="1">
          <mxGeometry relative="1" as="geometry">
            <mxPoint x="456" y="457" as="targetPoint" />
            <Array as="points">
              <mxPoint x="480" y="457" />
              <mxPoint x="480" y="457" />
            </Array>
          </mxGeometry>
        </mxCell>
        <mxCell id="Wkq0o6lShJqNt1TCamey-2" value="&amp;nbsp;config&amp;nbsp;" style="edgeLabel;html=1;align=center;verticalAlign=middle;resizable=0;points=[];" parent="Wkq0o6lShJqNt1TCamey-1" vertex="1" connectable="0">
          <mxGeometry x="0.1129" y="2" relative="1" as="geometry">
            <mxPoint as="offset" />
          </mxGeometry>
        </mxCell>
        <mxCell id="Wkq0o6lShJqNt1TCamey-3" value="" style="html=1;points=[];perimeter=orthogonalPerimeter;rounded=0;shadow=0;comic=0;labelBackgroundColor=none;strokeWidth=2;fontFamily=Verdana;fontSize=12;align=center;strokeColor=#EC4C2C;" parent="1" vertex="1">
          <mxGeometry x="617" y="358" width="10" height="100" as="geometry" />
        </mxCell>
        <mxCell id="Wkq0o6lShJqNt1TCamey-4" value="syncConfig()" style="html=1;verticalAlign=bottom;endArrow=block;labelBackgroundColor=none;fontFamily=Verdana;fontSize=12;edgeStyle=elbowEdgeStyle;elbow=vertical;" parent="1" target="Wkq0o6lShJqNt1TCamey-3" edge="1">
          <mxGeometry relative="1" as="geometry">
            <mxPoint x="455.0000000000002" y="358" as="sourcePoint" />
            <Array as="points">
              <mxPoint x="460" y="358" />
            </Array>
          </mxGeometry>
        </mxCell>
        <mxCell id="Wkq0o6lShJqNt1TCamey-5" value="refresh interval" style="shape=note;whiteSpace=wrap;html=1;backgroundOutline=1;darkOpacity=0.05;size=13;" parent="1" vertex="1">
          <mxGeometry x="490" y="380" width="90" height="50" as="geometry" />
        </mxCell>
        <mxCell id="Wkq0o6lShJqNt1TCamey-6" value="" style="html=1;points=[];perimeter=orthogonalPerimeter;rounded=0;shadow=0;comic=0;labelBackgroundColor=none;strokeWidth=2;fontFamily=Verdana;fontSize=12;align=center;strokeColor=#EC4C2C;" parent="1" vertex="1">
          <mxGeometry x="618" y="299" width="10" height="20" as="geometry" />
        </mxCell>
        <mxCell id="Wkq0o6lShJqNt1TCamey-7" style="edgeStyle=orthogonalEdgeStyle;rounded=0;orthogonalLoop=1;jettySize=auto;html=1;exitX=-0.059;exitY=0.493;exitDx=0;exitDy=0;exitPerimeter=0;dashed=1;dashPattern=1 1;endArrow=cross;endFill=0;" parent="1" edge="1" source="Wkq0o6lShJqNt1TCamey-6">
          <mxGeometry relative="1" as="geometry">
            <mxPoint x="456" y="308.9999999999999" as="targetPoint" />
            <Array as="points" />
            <mxPoint x="584.6700000000001" y="308.89999999999986" as="sourcePoint" />
          </mxGeometry>
        </mxCell>
        <mxCell id="Wkq0o6lShJqNt1TCamey-8" value="&lt;strike&gt;update event&lt;/strike&gt;" style="edgeLabel;html=1;align=center;verticalAlign=middle;resizable=0;points=[];" parent="Wkq0o6lShJqNt1TCamey-7" vertex="1" connectable="0">
          <mxGeometry x="0.1129" y="2" relative="1" as="geometry">
            <mxPoint x="12" y="-2" as="offset" />
          </mxGeometry>
        </mxCell>
      </root>
    </mxGraphModel>
  </diagram>
</mxfile>
